<?xml version="1.0" encoding="utf-8" standalone="no"?>
<!DOCTYPE svg PUBLIC "-//W3C//DTD SVG 1.1//EN"
  "http://www.w3.org/Graphics/SVG/1.1/DTD/svg11.dtd">
<svg xmlns:xlink="http://www.w3.org/1999/xlink" width="460.8pt" height="345.6pt" viewBox="0 0 460.8 345.6" xmlns="http://www.w3.org/2000/svg" version="1.1">
 <metadata>
  <rdf:RDF xmlns:dc="http://purl.org/dc/elements/1.1/" xmlns:cc="http://creativecommons.org/ns#" xmlns:rdf="http://www.w3.org/1999/02/22-rdf-syntax-ns#">
   <cc:Work>
    <dc:type rdf:resource="http://purl.org/dc/dcmitype/StillImage"/>
    <dc:date>2023-12-21T19:58:35.680745</dc:date>
    <dc:format>image/svg+xml</dc:format>
    <dc:creator>
     <cc:Agent>
      <dc:title>Matplotlib v3.7.0, https://matplotlib.org/</dc:title>
     </cc:Agent>
    </dc:creator>
   </cc:Work>
  </rdf:RDF>
 </metadata>
 <defs>
  <style type="text/css">*{stroke-linejoin: round; stroke-linecap: butt}</style>
 </defs>
 <g id="figure_1">
  <g id="patch_1">
   <path d="M 0 345.6 
L 460.8 345.6 
L 460.8 0 
L 0 0 
z
" style="fill: #ffffff"/>
  </g>
  <g id="axes_1">
   <g id="LineCollection_1">
    <path d="M 235.254888 170.993899 
L 208.205541 247.072331 
" clip-path="url(#p75dd8c83bf)" style="fill: none; stroke: #000000"/>
    <path d="M 235.254888 170.993899 
L 316.684216 124.710953 
" clip-path="url(#p75dd8c83bf)" style="fill: none; stroke: #000000"/>
    <path d="M 235.254888 170.993899 
L 146.541553 177.336897 
" clip-path="url(#p75dd8c83bf)" style="fill: none; stroke: #000000"/>
    <path d="M 235.254888 170.993899 
L 218.212352 103.970539 
" clip-path="url(#p75dd8c83bf)" style="fill: none; stroke: #000000"/>
    <path d="M 208.205541 247.072331 
L 146.541553 177.336897 
" clip-path="url(#p75dd8c83bf)" style="fill: none; stroke: #000000"/>
    <path d="M 208.205541 247.072331 
L 182.816518 315.609917 
" clip-path="url(#p75dd8c83bf)" style="fill: none; stroke: #000000"/>
    <path d="M 208.205541 247.072331 
L 266.430973 304.827465 
" clip-path="url(#p75dd8c83bf)" style="fill: none; stroke: #000000"/>
    <path d="M 316.684216 124.710953 
L 218.212352 103.970539 
" clip-path="url(#p75dd8c83bf)" style="fill: none; stroke: #000000"/>
    <path d="M 316.684216 124.710953 
L 304.638274 78.920752 
" clip-path="url(#p75dd8c83bf)" style="fill: none; stroke: #000000"/>
    <path d="M 316.684216 124.710953 
L 420.813223 117.68626 
" clip-path="url(#p75dd8c83bf)" style="fill: none; stroke: #000000"/>
    <path d="M 146.541553 177.336897 
L 139.187043 121.681376 
" clip-path="url(#p75dd8c83bf)" style="fill: none; stroke: #000000"/>
    <path d="M 146.541553 177.336897 
L 65.975337 222.714996 
" clip-path="url(#p75dd8c83bf)" style="fill: none; stroke: #000000"/>
    <path d="M 146.541553 177.336897 
L 218.212352 103.970539 
" clip-path="url(#p75dd8c83bf)" style="fill: none; stroke: #000000"/>
    <path d="M 146.541553 177.336897 
L 39.986777 171.294466 
" clip-path="url(#p75dd8c83bf)" style="fill: none; stroke: #000000"/>
    <path d="M 218.212352 103.970539 
L 239.074426 29.990083 
" clip-path="url(#p75dd8c83bf)" style="fill: none; stroke: #000000"/>
    <path d="M 218.212352 103.970539 
L 304.638274 78.920752 
" clip-path="url(#p75dd8c83bf)" style="fill: none; stroke: #000000"/>
    <path d="M 218.212352 103.970539 
L 161.630298 40.72273 
" clip-path="url(#p75dd8c83bf)" style="fill: none; stroke: #000000"/>
    <path d="M 218.212352 103.970539 
L 139.187043 121.681376 
" clip-path="url(#p75dd8c83bf)" style="fill: none; stroke: #000000"/>
   </g>
   <g id="PathCollection_1">
    <defs>
     <path id="C0_0_61628c2b85" d="M 0 4.472136 
C 1.186024 4.472136 2.323632 4.000923 3.162278 3.162278 
C 4.000923 2.323632 4.472136 1.186024 4.472136 -0 
C 4.472136 -1.186024 4.000923 -2.323632 3.162278 -3.162278 
C 2.323632 -4.000923 1.186024 -4.472136 0 -4.472136 
C -1.186024 -4.472136 -2.323632 -4.000923 -3.162278 -3.162278 
C -4.000923 -2.323632 -4.472136 -1.186024 -4.472136 0 
C -4.472136 1.186024 -4.000923 2.323632 -3.162278 3.162278 
C -2.323632 4.000923 -1.186024 4.472136 0 4.472136 
z
"/>
    </defs>
    <g clip-path="url(#p75dd8c83bf)">
     <use xlink:href="#C0_0_61628c2b85" x="235.254888" y="170.993899" style="fill: #ff0000; stroke: #ff0000"/>
    </g>
    <g clip-path="url(#p75dd8c83bf)">
     <use xlink:href="#C0_0_61628c2b85" x="208.205541" y="247.072331" style="fill: #0000ff; stroke: #0000ff"/>
    </g>
    <g clip-path="url(#p75dd8c83bf)">
     <use xlink:href="#C0_0_61628c2b85" x="316.684216" y="124.710953" style="fill: #0000ff; stroke: #0000ff"/>
    </g>
    <g clip-path="url(#p75dd8c83bf)">
     <use xlink:href="#C0_0_61628c2b85" x="146.541553" y="177.336897" style="fill: #0000ff; stroke: #0000ff"/>
    </g>
    <g clip-path="url(#p75dd8c83bf)">
     <use xlink:href="#C0_0_61628c2b85" x="218.212352" y="103.970539" style="fill: #0000ff; stroke: #0000ff"/>
    </g>
    <g clip-path="url(#p75dd8c83bf)">
     <use xlink:href="#C0_0_61628c2b85" x="182.816518" y="315.609917" style="fill: #0000ff; stroke: #0000ff"/>
    </g>
    <g clip-path="url(#p75dd8c83bf)">
     <use xlink:href="#C0_0_61628c2b85" x="266.430973" y="304.827465" style="fill: #0000ff; stroke: #0000ff"/>
    </g>
    <g clip-path="url(#p75dd8c83bf)">
     <use xlink:href="#C0_0_61628c2b85" x="304.638274" y="78.920752" style="fill: #0000ff; stroke: #0000ff"/>
    </g>
    <g clip-path="url(#p75dd8c83bf)">
     <use xlink:href="#C0_0_61628c2b85" x="420.813223" y="117.68626" style="fill: #0000ff; stroke: #0000ff"/>
    </g>
    <g clip-path="url(#p75dd8c83bf)">
     <use xlink:href="#C0_0_61628c2b85" x="139.187043" y="121.681376" style="fill: #0000ff; stroke: #0000ff"/>
    </g>
    <g clip-path="url(#p75dd8c83bf)">
     <use xlink:href="#C0_0_61628c2b85" x="65.975337" y="222.714996" style="fill: #0000ff; stroke: #0000ff"/>
    </g>
    <g clip-path="url(#p75dd8c83bf)">
     <use xlink:href="#C0_0_61628c2b85" x="39.986777" y="171.294466" style="fill: #0000ff; stroke: #0000ff"/>
    </g>
    <g clip-path="url(#p75dd8c83bf)">
     <use xlink:href="#C0_0_61628c2b85" x="239.074426" y="29.990083" style="fill: #0000ff; stroke: #0000ff"/>
    </g>
    <g clip-path="url(#p75dd8c83bf)">
     <use xlink:href="#C0_0_61628c2b85" x="161.630298" y="40.72273" style="fill: #0000ff; stroke: #0000ff"/>
    </g>
   </g>
   <g id="text_1">
    <g clip-path="url(#p75dd8c83bf)">
     <!-- BEL4 -->
     <g transform="translate(218.585201 174.305149) scale(0.12 -0.12)">
      <defs>
       <path id="DejaVuSans-Bold-42" d="M 2456 2859 
Q 2741 2859 2887 2984 
Q 3034 3109 3034 3353 
Q 3034 3594 2887 3720 
Q 2741 3847 2456 3847 
L 1791 3847 
L 1791 2859 
L 2456 2859 
z
M 2497 819 
Q 2859 819 3042 972 
Q 3225 1125 3225 1434 
Q 3225 1738 3044 1889 
Q 2863 2041 2497 2041 
L 1791 2041 
L 1791 819 
L 2497 819 
z
M 3616 2497 
Q 4003 2384 4215 2081 
Q 4428 1778 4428 1338 
Q 4428 663 3972 331 
Q 3516 0 2584 0 
L 588 0 
L 588 4666 
L 2394 4666 
Q 3366 4666 3802 4372 
Q 4238 4078 4238 3431 
Q 4238 3091 4078 2852 
Q 3919 2613 3616 2497 
z
" transform="scale(0.015625)"/>
       <path id="DejaVuSans-Bold-45" d="M 588 4666 
L 3834 4666 
L 3834 3756 
L 1791 3756 
L 1791 2888 
L 3713 2888 
L 3713 1978 
L 1791 1978 
L 1791 909 
L 3903 909 
L 3903 0 
L 588 0 
L 588 4666 
z
" transform="scale(0.015625)"/>
       <path id="DejaVuSans-Bold-4c" d="M 588 4666 
L 1791 4666 
L 1791 909 
L 3903 909 
L 3903 0 
L 588 0 
L 588 4666 
z
" transform="scale(0.015625)"/>
       <path id="DejaVuSans-Bold-34" d="M 2356 3675 
L 1038 1722 
L 2356 1722 
L 2356 3675 
z
M 2156 4666 
L 3494 4666 
L 3494 1722 
L 4159 1722 
L 4159 850 
L 3494 850 
L 3494 0 
L 2356 0 
L 2356 850 
L 288 850 
L 288 1881 
L 2156 4666 
z
" transform="scale(0.015625)"/>
      </defs>
      <use xlink:href="#DejaVuSans-Bold-42"/>
      <use xlink:href="#DejaVuSans-Bold-45" x="76.220703"/>
      <use xlink:href="#DejaVuSans-Bold-4c" x="144.53125"/>
      <use xlink:href="#DejaVuSans-Bold-34" x="208.251953"/>
     </g>
    </g>
   </g>
   <g id="text_2">
    <g clip-path="url(#p75dd8c83bf)">
     <!-- CDK Inhib. 3 -->
     <g transform="translate(166.414603 250.383581) scale(0.12 -0.12)">
      <defs>
       <path id="DejaVuSans-Bold-43" d="M 4288 256 
Q 3956 84 3597 -3 
Q 3238 -91 2847 -91 
Q 1681 -91 1000 561 
Q 319 1213 319 2328 
Q 319 3447 1000 4098 
Q 1681 4750 2847 4750 
Q 3238 4750 3597 4662 
Q 3956 4575 4288 4403 
L 4288 3438 
Q 3953 3666 3628 3772 
Q 3303 3878 2944 3878 
Q 2300 3878 1931 3465 
Q 1563 3053 1563 2328 
Q 1563 1606 1931 1193 
Q 2300 781 2944 781 
Q 3303 781 3628 887 
Q 3953 994 4288 1222 
L 4288 256 
z
" transform="scale(0.015625)"/>
       <path id="DejaVuSans-Bold-44" d="M 1791 3756 
L 1791 909 
L 2222 909 
Q 2959 909 3348 1275 
Q 3738 1641 3738 2338 
Q 3738 3031 3350 3393 
Q 2963 3756 2222 3756 
L 1791 3756 
z
M 588 4666 
L 1856 4666 
Q 2919 4666 3439 4514 
Q 3959 4363 4331 4000 
Q 4659 3684 4818 3271 
Q 4978 2859 4978 2338 
Q 4978 1809 4818 1395 
Q 4659 981 4331 666 
Q 3956 303 3431 151 
Q 2906 0 1856 0 
L 588 0 
L 588 4666 
z
" transform="scale(0.015625)"/>
       <path id="DejaVuSans-Bold-4b" d="M 588 4666 
L 1791 4666 
L 1791 2963 
L 3525 4666 
L 4922 4666 
L 2675 2456 
L 5153 0 
L 3647 0 
L 1791 1838 
L 1791 0 
L 588 0 
L 588 4666 
z
" transform="scale(0.015625)"/>
       <path id="DejaVuSans-Bold-20" transform="scale(0.015625)"/>
       <path id="DejaVuSans-Bold-49" d="M 588 4666 
L 1791 4666 
L 1791 0 
L 588 0 
L 588 4666 
z
" transform="scale(0.015625)"/>
       <path id="DejaVuSans-Bold-6e" d="M 4056 2131 
L 4056 0 
L 2931 0 
L 2931 347 
L 2931 1631 
Q 2931 2084 2911 2256 
Q 2891 2428 2841 2509 
Q 2775 2619 2662 2680 
Q 2550 2741 2406 2741 
Q 2056 2741 1856 2470 
Q 1656 2200 1656 1722 
L 1656 0 
L 538 0 
L 538 3500 
L 1656 3500 
L 1656 2988 
Q 1909 3294 2193 3439 
Q 2478 3584 2822 3584 
Q 3428 3584 3742 3212 
Q 4056 2841 4056 2131 
z
" transform="scale(0.015625)"/>
       <path id="DejaVuSans-Bold-68" d="M 4056 2131 
L 4056 0 
L 2931 0 
L 2931 347 
L 2931 1625 
Q 2931 2084 2911 2256 
Q 2891 2428 2841 2509 
Q 2775 2619 2662 2680 
Q 2550 2741 2406 2741 
Q 2056 2741 1856 2470 
Q 1656 2200 1656 1722 
L 1656 0 
L 538 0 
L 538 4863 
L 1656 4863 
L 1656 2988 
Q 1909 3294 2193 3439 
Q 2478 3584 2822 3584 
Q 3428 3584 3742 3212 
Q 4056 2841 4056 2131 
z
" transform="scale(0.015625)"/>
       <path id="DejaVuSans-Bold-69" d="M 538 3500 
L 1656 3500 
L 1656 0 
L 538 0 
L 538 3500 
z
M 538 4863 
L 1656 4863 
L 1656 3950 
L 538 3950 
L 538 4863 
z
" transform="scale(0.015625)"/>
       <path id="DejaVuSans-Bold-62" d="M 2400 722 
Q 2759 722 2948 984 
Q 3138 1247 3138 1747 
Q 3138 2247 2948 2509 
Q 2759 2772 2400 2772 
Q 2041 2772 1848 2508 
Q 1656 2244 1656 1747 
Q 1656 1250 1848 986 
Q 2041 722 2400 722 
z
M 1656 2988 
Q 1888 3294 2169 3439 
Q 2450 3584 2816 3584 
Q 3463 3584 3878 3070 
Q 4294 2556 4294 1747 
Q 4294 938 3878 423 
Q 3463 -91 2816 -91 
Q 2450 -91 2169 54 
Q 1888 200 1656 506 
L 1656 0 
L 538 0 
L 538 4863 
L 1656 4863 
L 1656 2988 
z
" transform="scale(0.015625)"/>
       <path id="DejaVuSans-Bold-2e" d="M 653 1209 
L 1778 1209 
L 1778 0 
L 653 0 
L 653 1209 
z
" transform="scale(0.015625)"/>
       <path id="DejaVuSans-Bold-33" d="M 2981 2516 
Q 3453 2394 3698 2092 
Q 3944 1791 3944 1325 
Q 3944 631 3412 270 
Q 2881 -91 1863 -91 
Q 1503 -91 1142 -33 
Q 781 25 428 141 
L 428 1069 
Q 766 900 1098 814 
Q 1431 728 1753 728 
Q 2231 728 2486 893 
Q 2741 1059 2741 1369 
Q 2741 1688 2480 1852 
Q 2219 2016 1709 2016 
L 1228 2016 
L 1228 2791 
L 1734 2791 
Q 2188 2791 2409 2933 
Q 2631 3075 2631 3366 
Q 2631 3634 2415 3781 
Q 2200 3928 1806 3928 
Q 1516 3928 1219 3862 
Q 922 3797 628 3669 
L 628 4550 
Q 984 4650 1334 4700 
Q 1684 4750 2022 4750 
Q 2931 4750 3382 4451 
Q 3834 4153 3834 3553 
Q 3834 3144 3618 2883 
Q 3403 2622 2981 2516 
z
" transform="scale(0.015625)"/>
      </defs>
      <use xlink:href="#DejaVuSans-Bold-43"/>
      <use xlink:href="#DejaVuSans-Bold-44" x="73.388672"/>
      <use xlink:href="#DejaVuSans-Bold-4b" x="156.396484"/>
      <use xlink:href="#DejaVuSans-Bold-20" x="233.886719"/>
      <use xlink:href="#DejaVuSans-Bold-49" x="268.701172"/>
      <use xlink:href="#DejaVuSans-Bold-6e" x="305.908203"/>
      <use xlink:href="#DejaVuSans-Bold-68" x="377.099609"/>
      <use xlink:href="#DejaVuSans-Bold-69" x="448.291016"/>
      <use xlink:href="#DejaVuSans-Bold-62" x="482.568359"/>
      <use xlink:href="#DejaVuSans-Bold-2e" x="554.150391"/>
      <use xlink:href="#DejaVuSans-Bold-20" x="592.138672"/>
      <use xlink:href="#DejaVuSans-Bold-33" x="626.953125"/>
     </g>
    </g>
   </g>
   <g id="text_3">
    <g clip-path="url(#p75dd8c83bf)">
     <!-- BEL1-like -->
     <g transform="translate(285.508591 128.022203) scale(0.12 -0.12)">
      <defs>
       <path id="DejaVuSans-Bold-31" d="M 750 831 
L 1813 831 
L 1813 3847 
L 722 3622 
L 722 4441 
L 1806 4666 
L 2950 4666 
L 2950 831 
L 4013 831 
L 4013 0 
L 750 0 
L 750 831 
z
" transform="scale(0.015625)"/>
       <path id="DejaVuSans-Bold-2d" d="M 347 2297 
L 2309 2297 
L 2309 1388 
L 347 1388 
L 347 2297 
z
" transform="scale(0.015625)"/>
       <path id="DejaVuSans-Bold-6c" d="M 538 4863 
L 1656 4863 
L 1656 0 
L 538 0 
L 538 4863 
z
" transform="scale(0.015625)"/>
       <path id="DejaVuSans-Bold-6b" d="M 538 4863 
L 1656 4863 
L 1656 2216 
L 2944 3500 
L 4244 3500 
L 2534 1894 
L 4378 0 
L 3022 0 
L 1656 1459 
L 1656 0 
L 538 0 
L 538 4863 
z
" transform="scale(0.015625)"/>
       <path id="DejaVuSans-Bold-65" d="M 4031 1759 
L 4031 1441 
L 1416 1441 
Q 1456 1047 1700 850 
Q 1944 653 2381 653 
Q 2734 653 3104 758 
Q 3475 863 3866 1075 
L 3866 213 
Q 3469 63 3072 -14 
Q 2675 -91 2278 -91 
Q 1328 -91 801 392 
Q 275 875 275 1747 
Q 275 2603 792 3093 
Q 1309 3584 2216 3584 
Q 3041 3584 3536 3087 
Q 4031 2591 4031 1759 
z
M 2881 2131 
Q 2881 2450 2695 2645 
Q 2509 2841 2209 2841 
Q 1884 2841 1681 2658 
Q 1478 2475 1428 2131 
L 2881 2131 
z
" transform="scale(0.015625)"/>
      </defs>
      <use xlink:href="#DejaVuSans-Bold-42"/>
      <use xlink:href="#DejaVuSans-Bold-45" x="76.220703"/>
      <use xlink:href="#DejaVuSans-Bold-4c" x="144.53125"/>
      <use xlink:href="#DejaVuSans-Bold-31" x="208.251953"/>
      <use xlink:href="#DejaVuSans-Bold-2d" x="277.832031"/>
      <use xlink:href="#DejaVuSans-Bold-6c" x="319.335938"/>
      <use xlink:href="#DejaVuSans-Bold-69" x="353.613281"/>
      <use xlink:href="#DejaVuSans-Bold-6b" x="387.890625"/>
      <use xlink:href="#DejaVuSans-Bold-65" x="451.769531"/>
     </g>
    </g>
   </g>
   <g id="text_4">
    <g clip-path="url(#p75dd8c83bf)">
     <!-- starch synthase -->
     <g transform="translate(92.595928 180.601272) scale(0.12 -0.12)">
      <defs>
       <path id="DejaVuSans-Bold-73" d="M 3272 3391 
L 3272 2541 
Q 2913 2691 2578 2766 
Q 2244 2841 1947 2841 
Q 1628 2841 1473 2761 
Q 1319 2681 1319 2516 
Q 1319 2381 1436 2309 
Q 1553 2238 1856 2203 
L 2053 2175 
Q 2913 2066 3209 1816 
Q 3506 1566 3506 1031 
Q 3506 472 3093 190 
Q 2681 -91 1863 -91 
Q 1516 -91 1145 -36 
Q 775 19 384 128 
L 384 978 
Q 719 816 1070 734 
Q 1422 653 1784 653 
Q 2113 653 2278 743 
Q 2444 834 2444 1013 
Q 2444 1163 2330 1236 
Q 2216 1309 1875 1350 
L 1678 1375 
Q 931 1469 631 1722 
Q 331 1975 331 2491 
Q 331 3047 712 3315 
Q 1094 3584 1881 3584 
Q 2191 3584 2531 3537 
Q 2872 3491 3272 3391 
z
" transform="scale(0.015625)"/>
       <path id="DejaVuSans-Bold-74" d="M 1759 4494 
L 1759 3500 
L 2913 3500 
L 2913 2700 
L 1759 2700 
L 1759 1216 
Q 1759 972 1856 886 
Q 1953 800 2241 800 
L 2816 800 
L 2816 0 
L 1856 0 
Q 1194 0 917 276 
Q 641 553 641 1216 
L 641 2700 
L 84 2700 
L 84 3500 
L 641 3500 
L 641 4494 
L 1759 4494 
z
" transform="scale(0.015625)"/>
       <path id="DejaVuSans-Bold-61" d="M 2106 1575 
Q 1756 1575 1579 1456 
Q 1403 1338 1403 1106 
Q 1403 894 1545 773 
Q 1688 653 1941 653 
Q 2256 653 2472 879 
Q 2688 1106 2688 1447 
L 2688 1575 
L 2106 1575 
z
M 3816 1997 
L 3816 0 
L 2688 0 
L 2688 519 
Q 2463 200 2181 54 
Q 1900 -91 1497 -91 
Q 953 -91 614 226 
Q 275 544 275 1050 
Q 275 1666 698 1953 
Q 1122 2241 2028 2241 
L 2688 2241 
L 2688 2328 
Q 2688 2594 2478 2717 
Q 2269 2841 1825 2841 
Q 1466 2841 1156 2769 
Q 847 2697 581 2553 
L 581 3406 
Q 941 3494 1303 3539 
Q 1666 3584 2028 3584 
Q 2975 3584 3395 3211 
Q 3816 2838 3816 1997 
z
" transform="scale(0.015625)"/>
       <path id="DejaVuSans-Bold-72" d="M 3138 2547 
Q 2991 2616 2845 2648 
Q 2700 2681 2553 2681 
Q 2122 2681 1889 2404 
Q 1656 2128 1656 1613 
L 1656 0 
L 538 0 
L 538 3500 
L 1656 3500 
L 1656 2925 
Q 1872 3269 2151 3426 
Q 2431 3584 2822 3584 
Q 2878 3584 2943 3579 
Q 3009 3575 3134 3559 
L 3138 2547 
z
" transform="scale(0.015625)"/>
       <path id="DejaVuSans-Bold-63" d="M 3366 3391 
L 3366 2478 
Q 3138 2634 2908 2709 
Q 2678 2784 2431 2784 
Q 1963 2784 1702 2511 
Q 1441 2238 1441 1747 
Q 1441 1256 1702 982 
Q 1963 709 2431 709 
Q 2694 709 2930 787 
Q 3166 866 3366 1019 
L 3366 103 
Q 3103 6 2833 -42 
Q 2563 -91 2291 -91 
Q 1344 -91 809 395 
Q 275 881 275 1747 
Q 275 2613 809 3098 
Q 1344 3584 2291 3584 
Q 2566 3584 2833 3536 
Q 3100 3488 3366 3391 
z
" transform="scale(0.015625)"/>
       <path id="DejaVuSans-Bold-79" d="M 78 3500 
L 1197 3500 
L 2138 1125 
L 2938 3500 
L 4056 3500 
L 2584 -331 
Q 2363 -916 2067 -1148 
Q 1772 -1381 1288 -1381 
L 641 -1381 
L 641 -647 
L 991 -647 
Q 1275 -647 1404 -556 
Q 1534 -466 1606 -231 
L 1638 -134 
L 78 3500 
z
" transform="scale(0.015625)"/>
      </defs>
      <use xlink:href="#DejaVuSans-Bold-73"/>
      <use xlink:href="#DejaVuSans-Bold-74" x="59.521484"/>
      <use xlink:href="#DejaVuSans-Bold-61" x="107.324219"/>
      <use xlink:href="#DejaVuSans-Bold-72" x="174.804688"/>
      <use xlink:href="#DejaVuSans-Bold-63" x="224.121094"/>
      <use xlink:href="#DejaVuSans-Bold-68" x="283.398438"/>
      <use xlink:href="#DejaVuSans-Bold-20" x="354.589844"/>
      <use xlink:href="#DejaVuSans-Bold-73" x="389.404297"/>
      <use xlink:href="#DejaVuSans-Bold-79" x="448.925781"/>
      <use xlink:href="#DejaVuSans-Bold-6e" x="514.111328"/>
      <use xlink:href="#DejaVuSans-Bold-74" x="585.302734"/>
      <use xlink:href="#DejaVuSans-Bold-68" x="633.105469"/>
      <use xlink:href="#DejaVuSans-Bold-61" x="704.296875"/>
      <use xlink:href="#DejaVuSans-Bold-73" x="771.777344"/>
      <use xlink:href="#DejaVuSans-Bold-65" x="831.298828"/>
     </g>
    </g>
   </g>
   <g id="text_5">
    <g clip-path="url(#p75dd8c83bf)">
     <!-- zinc finger -->
     <g transform="translate(182.485164 107.234914) scale(0.12 -0.12)">
      <defs>
       <path id="DejaVuSans-Bold-7a" d="M 366 3500 
L 3419 3500 
L 3419 2719 
L 1575 800 
L 3419 800 
L 3419 0 
L 288 0 
L 288 781 
L 2131 2700 
L 366 2700 
L 366 3500 
z
" transform="scale(0.015625)"/>
       <path id="DejaVuSans-Bold-66" d="M 2841 4863 
L 2841 4128 
L 2222 4128 
Q 1984 4128 1890 4042 
Q 1797 3956 1797 3744 
L 1797 3500 
L 2753 3500 
L 2753 2700 
L 1797 2700 
L 1797 0 
L 678 0 
L 678 2700 
L 122 2700 
L 122 3500 
L 678 3500 
L 678 3744 
Q 678 4316 997 4589 
Q 1316 4863 1984 4863 
L 2841 4863 
z
" transform="scale(0.015625)"/>
       <path id="DejaVuSans-Bold-67" d="M 2919 594 
Q 2688 288 2409 144 
Q 2131 0 1766 0 
Q 1125 0 706 504 
Q 288 1009 288 1791 
Q 288 2575 706 3076 
Q 1125 3578 1766 3578 
Q 2131 3578 2409 3434 
Q 2688 3291 2919 2981 
L 2919 3500 
L 4044 3500 
L 4044 353 
Q 4044 -491 3511 -936 
Q 2978 -1381 1966 -1381 
Q 1638 -1381 1331 -1331 
Q 1025 -1281 716 -1178 
L 716 -306 
Q 1009 -475 1290 -558 
Q 1572 -641 1856 -641 
Q 2406 -641 2662 -400 
Q 2919 -159 2919 353 
L 2919 594 
z
M 2181 2772 
Q 1834 2772 1640 2515 
Q 1447 2259 1447 1791 
Q 1447 1309 1634 1061 
Q 1822 813 2181 813 
Q 2531 813 2725 1069 
Q 2919 1325 2919 1791 
Q 2919 2259 2725 2515 
Q 2531 2772 2181 2772 
z
" transform="scale(0.015625)"/>
      </defs>
      <use xlink:href="#DejaVuSans-Bold-7a"/>
      <use xlink:href="#DejaVuSans-Bold-69" x="58.203125"/>
      <use xlink:href="#DejaVuSans-Bold-6e" x="92.480469"/>
      <use xlink:href="#DejaVuSans-Bold-63" x="163.671875"/>
      <use xlink:href="#DejaVuSans-Bold-20" x="222.949219"/>
      <use xlink:href="#DejaVuSans-Bold-66" x="257.763672"/>
      <use xlink:href="#DejaVuSans-Bold-69" x="301.269531"/>
      <use xlink:href="#DejaVuSans-Bold-6e" x="335.546875"/>
      <use xlink:href="#DejaVuSans-Bold-67" x="406.738281"/>
      <use xlink:href="#DejaVuSans-Bold-65" x="478.320312"/>
      <use xlink:href="#DejaVuSans-Bold-72" x="546.142578"/>
     </g>
    </g>
   </g>
   <g id="text_6">
    <g clip-path="url(#p75dd8c83bf)">
     <!-- indeterminate-domain 7 -->
     <g transform="translate(100.861206 318.921167) scale(0.12 -0.12)">
      <defs>
       <path id="DejaVuSans-Bold-64" d="M 2919 2988 
L 2919 4863 
L 4044 4863 
L 4044 0 
L 2919 0 
L 2919 506 
Q 2688 197 2409 53 
Q 2131 -91 1766 -91 
Q 1119 -91 703 423 
Q 288 938 288 1747 
Q 288 2556 703 3070 
Q 1119 3584 1766 3584 
Q 2128 3584 2408 3439 
Q 2688 3294 2919 2988 
z
M 2181 722 
Q 2541 722 2730 984 
Q 2919 1247 2919 1747 
Q 2919 2247 2730 2509 
Q 2541 2772 2181 2772 
Q 1825 2772 1636 2509 
Q 1447 2247 1447 1747 
Q 1447 1247 1636 984 
Q 1825 722 2181 722 
z
" transform="scale(0.015625)"/>
       <path id="DejaVuSans-Bold-6d" d="M 3781 2919 
Q 3994 3244 4286 3414 
Q 4578 3584 4928 3584 
Q 5531 3584 5847 3212 
Q 6163 2841 6163 2131 
L 6163 0 
L 5038 0 
L 5038 1825 
Q 5041 1866 5042 1909 
Q 5044 1953 5044 2034 
Q 5044 2406 4934 2573 
Q 4825 2741 4581 2741 
Q 4263 2741 4089 2478 
Q 3916 2216 3909 1719 
L 3909 0 
L 2784 0 
L 2784 1825 
Q 2784 2406 2684 2573 
Q 2584 2741 2328 2741 
Q 2006 2741 1831 2477 
Q 1656 2213 1656 1722 
L 1656 0 
L 531 0 
L 531 3500 
L 1656 3500 
L 1656 2988 
Q 1863 3284 2130 3434 
Q 2397 3584 2719 3584 
Q 3081 3584 3359 3409 
Q 3638 3234 3781 2919 
z
" transform="scale(0.015625)"/>
       <path id="DejaVuSans-Bold-6f" d="M 2203 2784 
Q 1831 2784 1636 2517 
Q 1441 2250 1441 1747 
Q 1441 1244 1636 976 
Q 1831 709 2203 709 
Q 2569 709 2762 976 
Q 2956 1244 2956 1747 
Q 2956 2250 2762 2517 
Q 2569 2784 2203 2784 
z
M 2203 3584 
Q 3106 3584 3614 3096 
Q 4122 2609 4122 1747 
Q 4122 884 3614 396 
Q 3106 -91 2203 -91 
Q 1297 -91 786 396 
Q 275 884 275 1747 
Q 275 2609 786 3096 
Q 1297 3584 2203 3584 
z
" transform="scale(0.015625)"/>
       <path id="DejaVuSans-Bold-37" d="M 428 4666 
L 3944 4666 
L 3944 3988 
L 2125 0 
L 953 0 
L 2675 3781 
L 428 3781 
L 428 4666 
z
" transform="scale(0.015625)"/>
      </defs>
      <use xlink:href="#DejaVuSans-Bold-69"/>
      <use xlink:href="#DejaVuSans-Bold-6e" x="34.277344"/>
      <use xlink:href="#DejaVuSans-Bold-64" x="105.46875"/>
      <use xlink:href="#DejaVuSans-Bold-65" x="177.050781"/>
      <use xlink:href="#DejaVuSans-Bold-74" x="244.873047"/>
      <use xlink:href="#DejaVuSans-Bold-65" x="292.675781"/>
      <use xlink:href="#DejaVuSans-Bold-72" x="360.498047"/>
      <use xlink:href="#DejaVuSans-Bold-6d" x="409.814453"/>
      <use xlink:href="#DejaVuSans-Bold-69" x="514.013672"/>
      <use xlink:href="#DejaVuSans-Bold-6e" x="548.291016"/>
      <use xlink:href="#DejaVuSans-Bold-61" x="619.482422"/>
      <use xlink:href="#DejaVuSans-Bold-74" x="686.962891"/>
      <use xlink:href="#DejaVuSans-Bold-65" x="734.765625"/>
      <use xlink:href="#DejaVuSans-Bold-2d" x="802.587891"/>
      <use xlink:href="#DejaVuSans-Bold-64" x="844.091797"/>
      <use xlink:href="#DejaVuSans-Bold-6f" x="915.673828"/>
      <use xlink:href="#DejaVuSans-Bold-6d" x="984.375"/>
      <use xlink:href="#DejaVuSans-Bold-61" x="1088.574219"/>
      <use xlink:href="#DejaVuSans-Bold-69" x="1156.054688"/>
      <use xlink:href="#DejaVuSans-Bold-6e" x="1190.332031"/>
      <use xlink:href="#DejaVuSans-Bold-20" x="1261.523438"/>
      <use xlink:href="#DejaVuSans-Bold-37" x="1296.337891"/>
     </g>
    </g>
   </g>
   <g id="text_7">
    <g clip-path="url(#p75dd8c83bf)">
     <!-- uncharacterized -->
     <g transform="translate(211.63691 308.138715) scale(0.12 -0.12)">
      <defs>
       <path id="DejaVuSans-Bold-75" d="M 500 1363 
L 500 3500 
L 1625 3500 
L 1625 3150 
Q 1625 2866 1622 2436 
Q 1619 2006 1619 1863 
Q 1619 1441 1641 1255 
Q 1663 1069 1716 984 
Q 1784 875 1895 815 
Q 2006 756 2150 756 
Q 2500 756 2700 1025 
Q 2900 1294 2900 1772 
L 2900 3500 
L 4019 3500 
L 4019 0 
L 2900 0 
L 2900 506 
Q 2647 200 2364 54 
Q 2081 -91 1741 -91 
Q 1134 -91 817 281 
Q 500 653 500 1363 
z
" transform="scale(0.015625)"/>
      </defs>
      <use xlink:href="#DejaVuSans-Bold-75"/>
      <use xlink:href="#DejaVuSans-Bold-6e" x="71.191406"/>
      <use xlink:href="#DejaVuSans-Bold-63" x="142.382812"/>
      <use xlink:href="#DejaVuSans-Bold-68" x="201.660156"/>
      <use xlink:href="#DejaVuSans-Bold-61" x="272.851562"/>
      <use xlink:href="#DejaVuSans-Bold-72" x="340.332031"/>
      <use xlink:href="#DejaVuSans-Bold-61" x="389.648438"/>
      <use xlink:href="#DejaVuSans-Bold-63" x="457.128906"/>
      <use xlink:href="#DejaVuSans-Bold-74" x="516.40625"/>
      <use xlink:href="#DejaVuSans-Bold-65" x="564.208984"/>
      <use xlink:href="#DejaVuSans-Bold-72" x="632.03125"/>
      <use xlink:href="#DejaVuSans-Bold-69" x="681.347656"/>
      <use xlink:href="#DejaVuSans-Bold-7a" x="715.625"/>
      <use xlink:href="#DejaVuSans-Bold-65" x="773.828125"/>
      <use xlink:href="#DejaVuSans-Bold-64" x="841.650391"/>
     </g>
    </g>
   </g>
   <g id="text_8">
    <g clip-path="url(#p75dd8c83bf)">
     <!-- B3 domain protein -->
     <g transform="translate(242.025461 82.232002) scale(0.12 -0.12)">
      <defs>
       <path id="DejaVuSans-Bold-70" d="M 1656 506 
L 1656 -1331 
L 538 -1331 
L 538 3500 
L 1656 3500 
L 1656 2988 
Q 1888 3294 2169 3439 
Q 2450 3584 2816 3584 
Q 3463 3584 3878 3070 
Q 4294 2556 4294 1747 
Q 4294 938 3878 423 
Q 3463 -91 2816 -91 
Q 2450 -91 2169 54 
Q 1888 200 1656 506 
z
M 2400 2772 
Q 2041 2772 1848 2508 
Q 1656 2244 1656 1747 
Q 1656 1250 1848 986 
Q 2041 722 2400 722 
Q 2759 722 2948 984 
Q 3138 1247 3138 1747 
Q 3138 2247 2948 2509 
Q 2759 2772 2400 2772 
z
" transform="scale(0.015625)"/>
      </defs>
      <use xlink:href="#DejaVuSans-Bold-42"/>
      <use xlink:href="#DejaVuSans-Bold-33" x="76.220703"/>
      <use xlink:href="#DejaVuSans-Bold-20" x="145.800781"/>
      <use xlink:href="#DejaVuSans-Bold-64" x="180.615234"/>
      <use xlink:href="#DejaVuSans-Bold-6f" x="252.197266"/>
      <use xlink:href="#DejaVuSans-Bold-6d" x="320.898438"/>
      <use xlink:href="#DejaVuSans-Bold-61" x="425.097656"/>
      <use xlink:href="#DejaVuSans-Bold-69" x="492.578125"/>
      <use xlink:href="#DejaVuSans-Bold-6e" x="526.855469"/>
      <use xlink:href="#DejaVuSans-Bold-20" x="598.046875"/>
      <use xlink:href="#DejaVuSans-Bold-70" x="632.861328"/>
      <use xlink:href="#DejaVuSans-Bold-72" x="704.443359"/>
      <use xlink:href="#DejaVuSans-Bold-6f" x="753.759766"/>
      <use xlink:href="#DejaVuSans-Bold-74" x="822.460938"/>
      <use xlink:href="#DejaVuSans-Bold-65" x="870.263672"/>
      <use xlink:href="#DejaVuSans-Bold-69" x="938.085938"/>
      <use xlink:href="#DejaVuSans-Bold-6e" x="972.363281"/>
     </g>
    </g>
   </g>
   <g id="text_9">
    <g clip-path="url(#p75dd8c83bf)">
     <!-- cellulose synthase -->
     <g transform="translate(358.311036 120.950635) scale(0.12 -0.12)">
      <use xlink:href="#DejaVuSans-Bold-63"/>
      <use xlink:href="#DejaVuSans-Bold-65" x="59.277344"/>
      <use xlink:href="#DejaVuSans-Bold-6c" x="127.099609"/>
      <use xlink:href="#DejaVuSans-Bold-6c" x="161.376953"/>
      <use xlink:href="#DejaVuSans-Bold-75" x="195.654297"/>
      <use xlink:href="#DejaVuSans-Bold-6c" x="266.845703"/>
      <use xlink:href="#DejaVuSans-Bold-6f" x="301.123047"/>
      <use xlink:href="#DejaVuSans-Bold-73" x="369.824219"/>
      <use xlink:href="#DejaVuSans-Bold-65" x="429.345703"/>
      <use xlink:href="#DejaVuSans-Bold-20" x="497.167969"/>
      <use xlink:href="#DejaVuSans-Bold-73" x="531.982422"/>
      <use xlink:href="#DejaVuSans-Bold-79" x="591.503906"/>
      <use xlink:href="#DejaVuSans-Bold-6e" x="656.689453"/>
      <use xlink:href="#DejaVuSans-Bold-74" x="727.880859"/>
      <use xlink:href="#DejaVuSans-Bold-68" x="775.683594"/>
      <use xlink:href="#DejaVuSans-Bold-61" x="846.875"/>
      <use xlink:href="#DejaVuSans-Bold-73" x="914.355469"/>
      <use xlink:href="#DejaVuSans-Bold-65" x="973.876953"/>
     </g>
    </g>
   </g>
   <g id="text_10">
    <g clip-path="url(#p75dd8c83bf)">
     <!-- NRT1/ PTR FAMILY -->
     <g transform="translate(78.582355 124.992626) scale(0.12 -0.12)">
      <defs>
       <path id="DejaVuSans-Bold-4e" d="M 588 4666 
L 1931 4666 
L 3628 1466 
L 3628 4666 
L 4769 4666 
L 4769 0 
L 3425 0 
L 1728 3200 
L 1728 0 
L 588 0 
L 588 4666 
z
" transform="scale(0.015625)"/>
       <path id="DejaVuSans-Bold-52" d="M 2297 2597 
Q 2675 2597 2839 2737 
Q 3003 2878 3003 3200 
Q 3003 3519 2839 3656 
Q 2675 3794 2297 3794 
L 1791 3794 
L 1791 2597 
L 2297 2597 
z
M 1791 1766 
L 1791 0 
L 588 0 
L 588 4666 
L 2425 4666 
Q 3347 4666 3776 4356 
Q 4206 4047 4206 3378 
Q 4206 2916 3982 2619 
Q 3759 2322 3309 2181 
Q 3556 2125 3751 1926 
Q 3947 1728 4147 1325 
L 4800 0 
L 3519 0 
L 2950 1159 
Q 2778 1509 2601 1637 
Q 2425 1766 2131 1766 
L 1791 1766 
z
" transform="scale(0.015625)"/>
       <path id="DejaVuSans-Bold-54" d="M 31 4666 
L 4331 4666 
L 4331 3756 
L 2784 3756 
L 2784 0 
L 1581 0 
L 1581 3756 
L 31 3756 
L 31 4666 
z
" transform="scale(0.015625)"/>
       <path id="DejaVuSans-Bold-2f" d="M 1644 4666 
L 2338 4666 
L 691 -594 
L 0 -594 
L 1644 4666 
z
" transform="scale(0.015625)"/>
       <path id="DejaVuSans-Bold-50" d="M 588 4666 
L 2584 4666 
Q 3475 4666 3951 4270 
Q 4428 3875 4428 3144 
Q 4428 2409 3951 2014 
Q 3475 1619 2584 1619 
L 1791 1619 
L 1791 0 
L 588 0 
L 588 4666 
z
M 1791 3794 
L 1791 2491 
L 2456 2491 
Q 2806 2491 2997 2661 
Q 3188 2831 3188 3144 
Q 3188 3456 2997 3625 
Q 2806 3794 2456 3794 
L 1791 3794 
z
" transform="scale(0.015625)"/>
       <path id="DejaVuSans-Bold-46" d="M 588 4666 
L 3834 4666 
L 3834 3756 
L 1791 3756 
L 1791 2888 
L 3713 2888 
L 3713 1978 
L 1791 1978 
L 1791 0 
L 588 0 
L 588 4666 
z
" transform="scale(0.015625)"/>
       <path id="DejaVuSans-Bold-41" d="M 3419 850 
L 1538 850 
L 1241 0 
L 31 0 
L 1759 4666 
L 3194 4666 
L 4922 0 
L 3713 0 
L 3419 850 
z
M 1838 1716 
L 3116 1716 
L 2478 3572 
L 1838 1716 
z
" transform="scale(0.015625)"/>
       <path id="DejaVuSans-Bold-4d" d="M 588 4666 
L 2119 4666 
L 3181 2169 
L 4250 4666 
L 5778 4666 
L 5778 0 
L 4641 0 
L 4641 3413 
L 3566 897 
L 2803 897 
L 1728 3413 
L 1728 0 
L 588 0 
L 588 4666 
z
" transform="scale(0.015625)"/>
       <path id="DejaVuSans-Bold-59" d="M -63 4666 
L 1253 4666 
L 2316 3003 
L 3378 4666 
L 4697 4666 
L 2919 1966 
L 2919 0 
L 1716 0 
L 1716 1966 
L -63 4666 
z
" transform="scale(0.015625)"/>
      </defs>
      <use xlink:href="#DejaVuSans-Bold-4e"/>
      <use xlink:href="#DejaVuSans-Bold-52" x="83.691406"/>
      <use xlink:href="#DejaVuSans-Bold-54" x="156.193359"/>
      <use xlink:href="#DejaVuSans-Bold-31" x="224.40625"/>
      <use xlink:href="#DejaVuSans-Bold-2f" x="293.986328"/>
      <use xlink:href="#DejaVuSans-Bold-20" x="330.509766"/>
      <use xlink:href="#DejaVuSans-Bold-50" x="365.324219"/>
      <use xlink:href="#DejaVuSans-Bold-54" x="438.615234"/>
      <use xlink:href="#DejaVuSans-Bold-52" x="506.828125"/>
      <use xlink:href="#DejaVuSans-Bold-20" x="583.830078"/>
      <use xlink:href="#DejaVuSans-Bold-46" x="618.644531"/>
      <use xlink:href="#DejaVuSans-Bold-41" x="675.455078"/>
      <use xlink:href="#DejaVuSans-Bold-4d" x="752.847656"/>
      <use xlink:href="#DejaVuSans-Bold-49" x="852.359375"/>
      <use xlink:href="#DejaVuSans-Bold-4c" x="889.566406"/>
      <use xlink:href="#DejaVuSans-Bold-59" x="937.662109"/>
     </g>
    </g>
   </g>
   <g id="text_11">
    <g clip-path="url(#p75dd8c83bf)">
     <!-- CHUP1 -->
     <g transform="translate(43.105962 226.026246) scale(0.12 -0.12)">
      <defs>
       <path id="DejaVuSans-Bold-48" d="M 588 4666 
L 1791 4666 
L 1791 2888 
L 3566 2888 
L 3566 4666 
L 4769 4666 
L 4769 0 
L 3566 0 
L 3566 1978 
L 1791 1978 
L 1791 0 
L 588 0 
L 588 4666 
z
" transform="scale(0.015625)"/>
       <path id="DejaVuSans-Bold-55" d="M 588 4666 
L 1791 4666 
L 1791 1869 
Q 1791 1291 1980 1042 
Q 2169 794 2597 794 
Q 3028 794 3217 1042 
Q 3406 1291 3406 1869 
L 3406 4666 
L 4609 4666 
L 4609 1869 
Q 4609 878 4112 393 
Q 3616 -91 2597 -91 
Q 1581 -91 1084 393 
Q 588 878 588 1869 
L 588 4666 
z
" transform="scale(0.015625)"/>
      </defs>
      <use xlink:href="#DejaVuSans-Bold-43"/>
      <use xlink:href="#DejaVuSans-Bold-48" x="73.388672"/>
      <use xlink:href="#DejaVuSans-Bold-55" x="157.080078"/>
      <use xlink:href="#DejaVuSans-Bold-50" x="238.28125"/>
      <use xlink:href="#DejaVuSans-Bold-31" x="311.572266"/>
     </g>
    </g>
   </g>
   <g id="text_12">
    <g clip-path="url(#p75dd8c83bf)">
     <!-- IQ domain protein -->
     <g transform="translate(-21.211348 174.605716) scale(0.12 -0.12)">
      <defs>
       <path id="DejaVuSans-Bold-51" d="M 2847 -84 
L 2753 -84 
Q 1600 -84 959 553 
Q 319 1191 319 2328 
Q 319 3463 958 4106 
Q 1597 4750 2719 4750 
Q 3853 4750 4486 4112 
Q 5119 3475 5119 2328 
Q 5119 1541 4783 972 
Q 4447 403 3816 116 
L 4756 -934 
L 3609 -934 
L 2847 -84 
z
M 2719 3878 
Q 2169 3878 1866 3472 
Q 1563 3066 1563 2328 
Q 1563 1578 1859 1179 
Q 2156 781 2719 781 
Q 3272 781 3575 1187 
Q 3878 1594 3878 2328 
Q 3878 3066 3575 3472 
Q 3272 3878 2719 3878 
z
" transform="scale(0.015625)"/>
      </defs>
      <use xlink:href="#DejaVuSans-Bold-49"/>
      <use xlink:href="#DejaVuSans-Bold-51" x="37.207031"/>
      <use xlink:href="#DejaVuSans-Bold-20" x="122.216797"/>
      <use xlink:href="#DejaVuSans-Bold-64" x="157.03125"/>
      <use xlink:href="#DejaVuSans-Bold-6f" x="228.613281"/>
      <use xlink:href="#DejaVuSans-Bold-6d" x="297.314453"/>
      <use xlink:href="#DejaVuSans-Bold-61" x="401.513672"/>
      <use xlink:href="#DejaVuSans-Bold-69" x="468.994141"/>
      <use xlink:href="#DejaVuSans-Bold-6e" x="503.271484"/>
      <use xlink:href="#DejaVuSans-Bold-20" x="574.462891"/>
      <use xlink:href="#DejaVuSans-Bold-70" x="609.277344"/>
      <use xlink:href="#DejaVuSans-Bold-72" x="680.859375"/>
      <use xlink:href="#DejaVuSans-Bold-6f" x="730.175781"/>
      <use xlink:href="#DejaVuSans-Bold-74" x="798.876953"/>
      <use xlink:href="#DejaVuSans-Bold-65" x="846.679688"/>
      <use xlink:href="#DejaVuSans-Bold-69" x="914.501953"/>
      <use xlink:href="#DejaVuSans-Bold-6e" x="948.779297"/>
     </g>
    </g>
   </g>
   <g id="text_13">
    <g clip-path="url(#p75dd8c83bf)">
     <!-- formin-like protein -->
     <g transform="translate(175.567238 33.301333) scale(0.12 -0.12)">
      <use xlink:href="#DejaVuSans-Bold-66"/>
      <use xlink:href="#DejaVuSans-Bold-6f" x="43.505859"/>
      <use xlink:href="#DejaVuSans-Bold-72" x="112.207031"/>
      <use xlink:href="#DejaVuSans-Bold-6d" x="161.523438"/>
      <use xlink:href="#DejaVuSans-Bold-69" x="265.722656"/>
      <use xlink:href="#DejaVuSans-Bold-6e" x="300"/>
      <use xlink:href="#DejaVuSans-Bold-2d" x="371.191406"/>
      <use xlink:href="#DejaVuSans-Bold-6c" x="412.695312"/>
      <use xlink:href="#DejaVuSans-Bold-69" x="446.972656"/>
      <use xlink:href="#DejaVuSans-Bold-6b" x="481.25"/>
      <use xlink:href="#DejaVuSans-Bold-65" x="545.128906"/>
      <use xlink:href="#DejaVuSans-Bold-20" x="612.951172"/>
      <use xlink:href="#DejaVuSans-Bold-70" x="647.765625"/>
      <use xlink:href="#DejaVuSans-Bold-72" x="719.347656"/>
      <use xlink:href="#DejaVuSans-Bold-6f" x="768.664062"/>
      <use xlink:href="#DejaVuSans-Bold-74" x="837.365234"/>
      <use xlink:href="#DejaVuSans-Bold-65" x="885.167969"/>
      <use xlink:href="#DejaVuSans-Bold-69" x="952.990234"/>
      <use xlink:href="#DejaVuSans-Bold-6e" x="987.267578"/>
     </g>
    </g>
   </g>
   <g id="text_14">
    <g clip-path="url(#p75dd8c83bf)">
     <!-- calcium uniporter 4 -->
     <g transform="translate(95.60686 44.03398) scale(0.12 -0.12)">
      <use xlink:href="#DejaVuSans-Bold-63"/>
      <use xlink:href="#DejaVuSans-Bold-61" x="59.277344"/>
      <use xlink:href="#DejaVuSans-Bold-6c" x="126.757812"/>
      <use xlink:href="#DejaVuSans-Bold-63" x="161.035156"/>
      <use xlink:href="#DejaVuSans-Bold-69" x="220.3125"/>
      <use xlink:href="#DejaVuSans-Bold-75" x="254.589844"/>
      <use xlink:href="#DejaVuSans-Bold-6d" x="325.78125"/>
      <use xlink:href="#DejaVuSans-Bold-20" x="429.980469"/>
      <use xlink:href="#DejaVuSans-Bold-75" x="464.794922"/>
      <use xlink:href="#DejaVuSans-Bold-6e" x="535.986328"/>
      <use xlink:href="#DejaVuSans-Bold-69" x="607.177734"/>
      <use xlink:href="#DejaVuSans-Bold-70" x="641.455078"/>
      <use xlink:href="#DejaVuSans-Bold-6f" x="713.037109"/>
      <use xlink:href="#DejaVuSans-Bold-72" x="781.738281"/>
      <use xlink:href="#DejaVuSans-Bold-74" x="831.054688"/>
      <use xlink:href="#DejaVuSans-Bold-65" x="878.857422"/>
      <use xlink:href="#DejaVuSans-Bold-72" x="946.679688"/>
      <use xlink:href="#DejaVuSans-Bold-20" x="995.996094"/>
      <use xlink:href="#DejaVuSans-Bold-34" x="1030.810547"/>
     </g>
    </g>
   </g>
  </g>
 </g>
 <defs>
  <clipPath id="p75dd8c83bf">
   <rect x="0" y="0" width="460.8" height="345.6"/>
  </clipPath>
 </defs>
</svg>
