<?xml version="1.0" encoding="utf-8" standalone="no"?>
<!DOCTYPE svg PUBLIC "-//W3C//DTD SVG 1.1//EN"
  "http://www.w3.org/Graphics/SVG/1.1/DTD/svg11.dtd">
<svg xmlns:xlink="http://www.w3.org/1999/xlink" width="460.8pt" height="345.6pt" viewBox="0 0 460.8 345.6" xmlns="http://www.w3.org/2000/svg" version="1.1">
 <metadata>
  <rdf:RDF xmlns:dc="http://purl.org/dc/elements/1.1/" xmlns:cc="http://creativecommons.org/ns#" xmlns:rdf="http://www.w3.org/1999/02/22-rdf-syntax-ns#">
   <cc:Work>
    <dc:type rdf:resource="http://purl.org/dc/dcmitype/StillImage"/>
    <dc:date>2023-12-18T20:14:31.232497</dc:date>
    <dc:format>image/svg+xml</dc:format>
    <dc:creator>
     <cc:Agent>
      <dc:title>Matplotlib v3.8.0, https://matplotlib.org/</dc:title>
     </cc:Agent>
    </dc:creator>
   </cc:Work>
  </rdf:RDF>
 </metadata>
 <defs>
  <style type="text/css">*{stroke-linejoin: round; stroke-linecap: butt}</style>
 </defs>
 <g id="figure_1">
  <g id="patch_1">
   <path d="M 0 345.6 
L 460.8 345.6 
L 460.8 0 
L 0 0 
z
" style="fill: #ffffff"/>
  </g>
  <g id="axes_1">
   <g id="LineCollection_1">
    <path d="M 227.187866 165.201777 
L 263.661514 92.400284 
" clip-path="url(#p8423eaaab2)" style="fill: none; stroke: #000000"/>
    <path d="M 227.187866 165.201777 
L 314.804587 223.112017 
" clip-path="url(#p8423eaaab2)" style="fill: none; stroke: #000000"/>
    <path d="M 227.187866 165.201777 
L 143.272487 86.058888 
" clip-path="url(#p8423eaaab2)" style="fill: none; stroke: #000000"/>
    <path d="M 227.187866 165.201777 
L 208.985476 254.40642 
" clip-path="url(#p8423eaaab2)" style="fill: none; stroke: #000000"/>
    <path d="M 263.661514 92.400284 
L 143.272487 86.058888 
" clip-path="url(#p8423eaaab2)" style="fill: none; stroke: #000000"/>
    <path d="M 263.661514 92.400284 
L 364.591785 71.03248 
" clip-path="url(#p8423eaaab2)" style="fill: none; stroke: #000000"/>
    <path d="M 263.661514 92.400284 
L 312.219141 39.221059 
" clip-path="url(#p8423eaaab2)" style="fill: none; stroke: #000000"/>
    <path d="M 314.804587 223.112017 
L 398.855109 261.620382 
" clip-path="url(#p8423eaaab2)" style="fill: none; stroke: #000000"/>
    <path d="M 314.804587 223.112017 
L 208.985476 254.40642 
" clip-path="url(#p8423eaaab2)" style="fill: none; stroke: #000000"/>
    <path d="M 314.804587 223.112017 
L 420.813223 220.399026 
" clip-path="url(#p8423eaaab2)" style="fill: none; stroke: #000000"/>
    <path d="M 143.272487 86.058888 
L 39.986777 60.923606 
" clip-path="url(#p8423eaaab2)" style="fill: none; stroke: #000000"/>
    <path d="M 143.272487 86.058888 
L 157.574871 29.990083 
" clip-path="url(#p8423eaaab2)" style="fill: none; stroke: #000000"/>
    <path d="M 143.272487 86.058888 
L 43.898224 100.167597 
" clip-path="url(#p8423eaaab2)" style="fill: none; stroke: #000000"/>
    <path d="M 143.272487 86.058888 
L 86.788823 32.649816 
" clip-path="url(#p8423eaaab2)" style="fill: none; stroke: #000000"/>
    <path d="M 208.985476 254.40642 
L 195.347903 315.609917 
" clip-path="url(#p8423eaaab2)" style="fill: none; stroke: #000000"/>
    <path d="M 208.985476 254.40642 
L 263.739859 304.333623 
" clip-path="url(#p8423eaaab2)" style="fill: none; stroke: #000000"/>
    <path d="M 208.985476 254.40642 
L 131.473327 299.847473 
" clip-path="url(#p8423eaaab2)" style="fill: none; stroke: #000000"/>
    <path d="M 208.985476 254.40642 
L 107.59497 262.331561 
" clip-path="url(#p8423eaaab2)" style="fill: none; stroke: #000000"/>
   </g>
   <g id="PathCollection_1">
    <defs>
     <path id="C0_0_a22ddb3dc3" d="M 0 2.236068 
C 0.593012 2.236068 1.161816 2.000462 1.581139 1.581139 
C 2.000462 1.161816 2.236068 0.593012 2.236068 -0 
C 2.236068 -0.593012 2.000462 -1.161816 1.581139 -1.581139 
C 1.161816 -2.000462 0.593012 -2.236068 0 -2.236068 
C -0.593012 -2.236068 -1.161816 -2.000462 -1.581139 -1.581139 
C -2.000462 -1.161816 -2.236068 -0.593012 -2.236068 0 
C -2.236068 0.593012 -2.000462 1.161816 -1.581139 1.581139 
C -1.161816 2.000462 -0.593012 2.236068 0 2.236068 
z
"/>
    </defs>
    <g clip-path="url(#p8423eaaab2)">
     <use xlink:href="#C0_0_a22ddb3dc3" x="227.187866" y="165.201777" style="fill: #ff0000; stroke: #ff0000"/>
    </g>
    <g clip-path="url(#p8423eaaab2)">
     <use xlink:href="#C0_0_a22ddb3dc3" x="263.661514" y="92.400284" style="fill: #0000ff; stroke: #0000ff"/>
    </g>
    <g clip-path="url(#p8423eaaab2)">
     <use xlink:href="#C0_0_a22ddb3dc3" x="314.804587" y="223.112017" style="fill: #0000ff; stroke: #0000ff"/>
    </g>
    <g clip-path="url(#p8423eaaab2)">
     <use xlink:href="#C0_0_a22ddb3dc3" x="143.272487" y="86.058888" style="fill: #0000ff; stroke: #0000ff"/>
    </g>
    <g clip-path="url(#p8423eaaab2)">
     <use xlink:href="#C0_0_a22ddb3dc3" x="208.985476" y="254.40642" style="fill: #0000ff; stroke: #0000ff"/>
    </g>
    <g clip-path="url(#p8423eaaab2)">
     <use xlink:href="#C0_0_a22ddb3dc3" x="364.591785" y="71.03248" style="fill: #0000ff; stroke: #0000ff"/>
    </g>
    <g clip-path="url(#p8423eaaab2)">
     <use xlink:href="#C0_0_a22ddb3dc3" x="312.219141" y="39.221059" style="fill: #0000ff; stroke: #0000ff"/>
    </g>
    <g clip-path="url(#p8423eaaab2)">
     <use xlink:href="#C0_0_a22ddb3dc3" x="398.855109" y="261.620382" style="fill: #0000ff; stroke: #0000ff"/>
    </g>
    <g clip-path="url(#p8423eaaab2)">
     <use xlink:href="#C0_0_a22ddb3dc3" x="420.813223" y="220.399026" style="fill: #0000ff; stroke: #0000ff"/>
    </g>
    <g clip-path="url(#p8423eaaab2)">
     <use xlink:href="#C0_0_a22ddb3dc3" x="39.986777" y="60.923606" style="fill: #0000ff; stroke: #0000ff"/>
    </g>
    <g clip-path="url(#p8423eaaab2)">
     <use xlink:href="#C0_0_a22ddb3dc3" x="157.574871" y="29.990083" style="fill: #0000ff; stroke: #0000ff"/>
    </g>
    <g clip-path="url(#p8423eaaab2)">
     <use xlink:href="#C0_0_a22ddb3dc3" x="43.898224" y="100.167597" style="fill: #0000ff; stroke: #0000ff"/>
    </g>
    <g clip-path="url(#p8423eaaab2)">
     <use xlink:href="#C0_0_a22ddb3dc3" x="86.788823" y="32.649816" style="fill: #0000ff; stroke: #0000ff"/>
    </g>
    <g clip-path="url(#p8423eaaab2)">
     <use xlink:href="#C0_0_a22ddb3dc3" x="195.347903" y="315.609917" style="fill: #0000ff; stroke: #0000ff"/>
    </g>
    <g clip-path="url(#p8423eaaab2)">
     <use xlink:href="#C0_0_a22ddb3dc3" x="263.739859" y="304.333623" style="fill: #0000ff; stroke: #0000ff"/>
    </g>
    <g clip-path="url(#p8423eaaab2)">
     <use xlink:href="#C0_0_a22ddb3dc3" x="131.473327" y="299.847473" style="fill: #0000ff; stroke: #0000ff"/>
    </g>
    <g clip-path="url(#p8423eaaab2)">
     <use xlink:href="#C0_0_a22ddb3dc3" x="107.59497" y="262.331561" style="fill: #0000ff; stroke: #0000ff"/>
    </g>
   </g>
   <g id="text_1">
    <g clip-path="url(#p8423eaaab2)">
     <!-- LOC25502090 -->
     <g transform="translate(180.680366 168.513027) scale(0.12 -0.12)">
      <defs>
       <path id="DejaVuSans-Bold-4c" d="M 588 4666 
L 1791 4666 
L 1791 909 
L 3903 909 
L 3903 0 
L 588 0 
L 588 4666 
z
" transform="scale(0.015625)"/>
       <path id="DejaVuSans-Bold-4f" d="M 2719 3878 
Q 2169 3878 1866 3472 
Q 1563 3066 1563 2328 
Q 1563 1594 1866 1187 
Q 2169 781 2719 781 
Q 3272 781 3575 1187 
Q 3878 1594 3878 2328 
Q 3878 3066 3575 3472 
Q 3272 3878 2719 3878 
z
M 2719 4750 
Q 3844 4750 4481 4106 
Q 5119 3463 5119 2328 
Q 5119 1197 4481 553 
Q 3844 -91 2719 -91 
Q 1597 -91 958 553 
Q 319 1197 319 2328 
Q 319 3463 958 4106 
Q 1597 4750 2719 4750 
z
" transform="scale(0.015625)"/>
       <path id="DejaVuSans-Bold-43" d="M 4288 256 
Q 3956 84 3597 -3 
Q 3238 -91 2847 -91 
Q 1681 -91 1000 561 
Q 319 1213 319 2328 
Q 319 3447 1000 4098 
Q 1681 4750 2847 4750 
Q 3238 4750 3597 4662 
Q 3956 4575 4288 4403 
L 4288 3438 
Q 3953 3666 3628 3772 
Q 3303 3878 2944 3878 
Q 2300 3878 1931 3465 
Q 1563 3053 1563 2328 
Q 1563 1606 1931 1193 
Q 2300 781 2944 781 
Q 3303 781 3628 887 
Q 3953 994 4288 1222 
L 4288 256 
z
" transform="scale(0.015625)"/>
       <path id="DejaVuSans-Bold-32" d="M 1844 884 
L 3897 884 
L 3897 0 
L 506 0 
L 506 884 
L 2209 2388 
Q 2438 2594 2547 2791 
Q 2656 2988 2656 3200 
Q 2656 3528 2436 3728 
Q 2216 3928 1850 3928 
Q 1569 3928 1234 3808 
Q 900 3688 519 3450 
L 519 4475 
Q 925 4609 1322 4679 
Q 1719 4750 2100 4750 
Q 2938 4750 3402 4381 
Q 3866 4013 3866 3353 
Q 3866 2972 3669 2642 
Q 3472 2313 2841 1759 
L 1844 884 
z
" transform="scale(0.015625)"/>
       <path id="DejaVuSans-Bold-35" d="M 678 4666 
L 3669 4666 
L 3669 3781 
L 1638 3781 
L 1638 3059 
Q 1775 3097 1914 3117 
Q 2053 3138 2203 3138 
Q 3056 3138 3531 2711 
Q 4006 2284 4006 1522 
Q 4006 766 3489 337 
Q 2972 -91 2053 -91 
Q 1656 -91 1267 -14 
Q 878 63 494 219 
L 494 1166 
Q 875 947 1217 837 
Q 1559 728 1863 728 
Q 2300 728 2551 942 
Q 2803 1156 2803 1522 
Q 2803 1891 2551 2103 
Q 2300 2316 1863 2316 
Q 1603 2316 1309 2248 
Q 1016 2181 678 2041 
L 678 4666 
z
" transform="scale(0.015625)"/>
       <path id="DejaVuSans-Bold-30" d="M 2944 2338 
Q 2944 3213 2780 3570 
Q 2616 3928 2228 3928 
Q 1841 3928 1675 3570 
Q 1509 3213 1509 2338 
Q 1509 1453 1675 1090 
Q 1841 728 2228 728 
Q 2613 728 2778 1090 
Q 2944 1453 2944 2338 
z
M 4147 2328 
Q 4147 1169 3647 539 
Q 3147 -91 2228 -91 
Q 1306 -91 806 539 
Q 306 1169 306 2328 
Q 306 3491 806 4120 
Q 1306 4750 2228 4750 
Q 3147 4750 3647 4120 
Q 4147 3491 4147 2328 
z
" transform="scale(0.015625)"/>
       <path id="DejaVuSans-Bold-39" d="M 641 103 
L 641 966 
Q 928 831 1190 764 
Q 1453 697 1709 697 
Q 2247 697 2547 995 
Q 2847 1294 2900 1881 
Q 2688 1725 2447 1647 
Q 2206 1569 1925 1569 
Q 1209 1569 770 1986 
Q 331 2403 331 3084 
Q 331 3838 820 4291 
Q 1309 4744 2131 4744 
Q 3044 4744 3544 4128 
Q 4044 3513 4044 2388 
Q 4044 1231 3459 570 
Q 2875 -91 1856 -91 
Q 1528 -91 1228 -42 
Q 928 6 641 103 
z
M 2125 2350 
Q 2441 2350 2600 2554 
Q 2759 2759 2759 3169 
Q 2759 3575 2600 3781 
Q 2441 3988 2125 3988 
Q 1809 3988 1650 3781 
Q 1491 3575 1491 3169 
Q 1491 2759 1650 2554 
Q 1809 2350 2125 2350 
z
" transform="scale(0.015625)"/>
      </defs>
      <use xlink:href="#DejaVuSans-Bold-4c"/>
      <use xlink:href="#DejaVuSans-Bold-4f" x="60.095703"/>
      <use xlink:href="#DejaVuSans-Bold-43" x="145.105469"/>
      <use xlink:href="#DejaVuSans-Bold-32" x="218.494141"/>
      <use xlink:href="#DejaVuSans-Bold-35" x="288.074219"/>
      <use xlink:href="#DejaVuSans-Bold-35" x="357.654297"/>
      <use xlink:href="#DejaVuSans-Bold-30" x="427.234375"/>
      <use xlink:href="#DejaVuSans-Bold-32" x="496.814453"/>
      <use xlink:href="#DejaVuSans-Bold-30" x="566.394531"/>
      <use xlink:href="#DejaVuSans-Bold-39" x="635.974609"/>
      <use xlink:href="#DejaVuSans-Bold-30" x="705.554688"/>
     </g>
    </g>
   </g>
   <g id="text_2">
    <g clip-path="url(#p8423eaaab2)">
     <!-- LOC11426282 -->
     <g transform="translate(217.154014 95.711534) scale(0.12 -0.12)">
      <defs>
       <path id="DejaVuSans-Bold-31" d="M 750 831 
L 1813 831 
L 1813 3847 
L 722 3622 
L 722 4441 
L 1806 4666 
L 2950 4666 
L 2950 831 
L 4013 831 
L 4013 0 
L 750 0 
L 750 831 
z
" transform="scale(0.015625)"/>
       <path id="DejaVuSans-Bold-34" d="M 2356 3675 
L 1038 1722 
L 2356 1722 
L 2356 3675 
z
M 2156 4666 
L 3494 4666 
L 3494 1722 
L 4159 1722 
L 4159 850 
L 3494 850 
L 3494 0 
L 2356 0 
L 2356 850 
L 288 850 
L 288 1881 
L 2156 4666 
z
" transform="scale(0.015625)"/>
       <path id="DejaVuSans-Bold-36" d="M 2316 2303 
Q 2000 2303 1842 2098 
Q 1684 1894 1684 1484 
Q 1684 1075 1842 870 
Q 2000 666 2316 666 
Q 2634 666 2792 870 
Q 2950 1075 2950 1484 
Q 2950 1894 2792 2098 
Q 2634 2303 2316 2303 
z
M 3803 4544 
L 3803 3681 
Q 3506 3822 3243 3889 
Q 2981 3956 2731 3956 
Q 2194 3956 1894 3657 
Q 1594 3359 1544 2772 
Q 1750 2925 1990 3001 
Q 2231 3078 2516 3078 
Q 3231 3078 3670 2659 
Q 4109 2241 4109 1563 
Q 4109 813 3618 361 
Q 3128 -91 2303 -91 
Q 1394 -91 895 523 
Q 397 1138 397 2266 
Q 397 3422 980 4083 
Q 1563 4744 2578 4744 
Q 2900 4744 3203 4694 
Q 3506 4644 3803 4544 
z
" transform="scale(0.015625)"/>
       <path id="DejaVuSans-Bold-38" d="M 2228 2088 
Q 1891 2088 1709 1903 
Q 1528 1719 1528 1375 
Q 1528 1031 1709 848 
Q 1891 666 2228 666 
Q 2563 666 2741 848 
Q 2919 1031 2919 1375 
Q 2919 1722 2741 1905 
Q 2563 2088 2228 2088 
z
M 1350 2484 
Q 925 2613 709 2878 
Q 494 3144 494 3541 
Q 494 4131 934 4440 
Q 1375 4750 2228 4750 
Q 3075 4750 3515 4442 
Q 3956 4134 3956 3541 
Q 3956 3144 3739 2878 
Q 3522 2613 3097 2484 
Q 3572 2353 3814 2058 
Q 4056 1763 4056 1313 
Q 4056 619 3595 264 
Q 3134 -91 2228 -91 
Q 1319 -91 855 264 
Q 391 619 391 1313 
Q 391 1763 633 2058 
Q 875 2353 1350 2484 
z
M 1631 3419 
Q 1631 3141 1786 2991 
Q 1941 2841 2228 2841 
Q 2509 2841 2662 2991 
Q 2816 3141 2816 3419 
Q 2816 3697 2662 3845 
Q 2509 3994 2228 3994 
Q 1941 3994 1786 3844 
Q 1631 3694 1631 3419 
z
" transform="scale(0.015625)"/>
      </defs>
      <use xlink:href="#DejaVuSans-Bold-4c"/>
      <use xlink:href="#DejaVuSans-Bold-4f" x="60.095703"/>
      <use xlink:href="#DejaVuSans-Bold-43" x="145.105469"/>
      <use xlink:href="#DejaVuSans-Bold-31" x="218.494141"/>
      <use xlink:href="#DejaVuSans-Bold-31" x="288.074219"/>
      <use xlink:href="#DejaVuSans-Bold-34" x="357.654297"/>
      <use xlink:href="#DejaVuSans-Bold-32" x="427.234375"/>
      <use xlink:href="#DejaVuSans-Bold-36" x="496.814453"/>
      <use xlink:href="#DejaVuSans-Bold-32" x="566.394531"/>
      <use xlink:href="#DejaVuSans-Bold-38" x="635.974609"/>
      <use xlink:href="#DejaVuSans-Bold-32" x="705.554688"/>
     </g>
    </g>
   </g>
   <g id="text_3">
    <g clip-path="url(#p8423eaaab2)">
     <!-- LOC11411247 -->
     <g transform="translate(268.297087 226.423267) scale(0.12 -0.12)">
      <defs>
       <path id="DejaVuSans-Bold-37" d="M 428 4666 
L 3944 4666 
L 3944 3988 
L 2125 0 
L 953 0 
L 2675 3781 
L 428 3781 
L 428 4666 
z
" transform="scale(0.015625)"/>
      </defs>
      <use xlink:href="#DejaVuSans-Bold-4c"/>
      <use xlink:href="#DejaVuSans-Bold-4f" x="60.095703"/>
      <use xlink:href="#DejaVuSans-Bold-43" x="145.105469"/>
      <use xlink:href="#DejaVuSans-Bold-31" x="218.494141"/>
      <use xlink:href="#DejaVuSans-Bold-31" x="288.074219"/>
      <use xlink:href="#DejaVuSans-Bold-34" x="357.654297"/>
      <use xlink:href="#DejaVuSans-Bold-31" x="427.234375"/>
      <use xlink:href="#DejaVuSans-Bold-31" x="496.814453"/>
      <use xlink:href="#DejaVuSans-Bold-32" x="566.394531"/>
      <use xlink:href="#DejaVuSans-Bold-34" x="635.974609"/>
      <use xlink:href="#DejaVuSans-Bold-37" x="705.554688"/>
     </g>
    </g>
   </g>
   <g id="text_4">
    <g clip-path="url(#p8423eaaab2)">
     <!-- LOC25493390 -->
     <g transform="translate(96.764987 89.370138) scale(0.12 -0.12)">
      <defs>
       <path id="DejaVuSans-Bold-33" d="M 2981 2516 
Q 3453 2394 3698 2092 
Q 3944 1791 3944 1325 
Q 3944 631 3412 270 
Q 2881 -91 1863 -91 
Q 1503 -91 1142 -33 
Q 781 25 428 141 
L 428 1069 
Q 766 900 1098 814 
Q 1431 728 1753 728 
Q 2231 728 2486 893 
Q 2741 1059 2741 1369 
Q 2741 1688 2480 1852 
Q 2219 2016 1709 2016 
L 1228 2016 
L 1228 2791 
L 1734 2791 
Q 2188 2791 2409 2933 
Q 2631 3075 2631 3366 
Q 2631 3634 2415 3781 
Q 2200 3928 1806 3928 
Q 1516 3928 1219 3862 
Q 922 3797 628 3669 
L 628 4550 
Q 984 4650 1334 4700 
Q 1684 4750 2022 4750 
Q 2931 4750 3382 4451 
Q 3834 4153 3834 3553 
Q 3834 3144 3618 2883 
Q 3403 2622 2981 2516 
z
" transform="scale(0.015625)"/>
      </defs>
      <use xlink:href="#DejaVuSans-Bold-4c"/>
      <use xlink:href="#DejaVuSans-Bold-4f" x="60.095703"/>
      <use xlink:href="#DejaVuSans-Bold-43" x="145.105469"/>
      <use xlink:href="#DejaVuSans-Bold-32" x="218.494141"/>
      <use xlink:href="#DejaVuSans-Bold-35" x="288.074219"/>
      <use xlink:href="#DejaVuSans-Bold-34" x="357.654297"/>
      <use xlink:href="#DejaVuSans-Bold-39" x="427.234375"/>
      <use xlink:href="#DejaVuSans-Bold-33" x="496.814453"/>
      <use xlink:href="#DejaVuSans-Bold-33" x="566.394531"/>
      <use xlink:href="#DejaVuSans-Bold-39" x="635.974609"/>
      <use xlink:href="#DejaVuSans-Bold-30" x="705.554688"/>
     </g>
    </g>
   </g>
   <g id="text_5">
    <g clip-path="url(#p8423eaaab2)">
     <!-- LOC11408002 -->
     <g transform="translate(162.477976 257.71767) scale(0.12 -0.12)">
      <use xlink:href="#DejaVuSans-Bold-4c"/>
      <use xlink:href="#DejaVuSans-Bold-4f" x="60.095703"/>
      <use xlink:href="#DejaVuSans-Bold-43" x="145.105469"/>
      <use xlink:href="#DejaVuSans-Bold-31" x="218.494141"/>
      <use xlink:href="#DejaVuSans-Bold-31" x="288.074219"/>
      <use xlink:href="#DejaVuSans-Bold-34" x="357.654297"/>
      <use xlink:href="#DejaVuSans-Bold-30" x="427.234375"/>
      <use xlink:href="#DejaVuSans-Bold-38" x="496.814453"/>
      <use xlink:href="#DejaVuSans-Bold-30" x="566.394531"/>
      <use xlink:href="#DejaVuSans-Bold-30" x="635.974609"/>
      <use xlink:href="#DejaVuSans-Bold-32" x="705.554688"/>
     </g>
    </g>
   </g>
   <g id="text_6">
    <g clip-path="url(#p8423eaaab2)">
     <!-- LOC25481993 -->
     <g transform="translate(318.084285 74.34373) scale(0.12 -0.12)">
      <use xlink:href="#DejaVuSans-Bold-4c"/>
      <use xlink:href="#DejaVuSans-Bold-4f" x="60.095703"/>
      <use xlink:href="#DejaVuSans-Bold-43" x="145.105469"/>
      <use xlink:href="#DejaVuSans-Bold-32" x="218.494141"/>
      <use xlink:href="#DejaVuSans-Bold-35" x="288.074219"/>
      <use xlink:href="#DejaVuSans-Bold-34" x="357.654297"/>
      <use xlink:href="#DejaVuSans-Bold-38" x="427.234375"/>
      <use xlink:href="#DejaVuSans-Bold-31" x="496.814453"/>
      <use xlink:href="#DejaVuSans-Bold-39" x="566.394531"/>
      <use xlink:href="#DejaVuSans-Bold-39" x="635.974609"/>
      <use xlink:href="#DejaVuSans-Bold-33" x="705.554688"/>
     </g>
    </g>
   </g>
   <g id="text_7">
    <g clip-path="url(#p8423eaaab2)">
     <!-- LOC25501709 -->
     <g transform="translate(265.711641 42.532309) scale(0.12 -0.12)">
      <use xlink:href="#DejaVuSans-Bold-4c"/>
      <use xlink:href="#DejaVuSans-Bold-4f" x="60.095703"/>
      <use xlink:href="#DejaVuSans-Bold-43" x="145.105469"/>
      <use xlink:href="#DejaVuSans-Bold-32" x="218.494141"/>
      <use xlink:href="#DejaVuSans-Bold-35" x="288.074219"/>
      <use xlink:href="#DejaVuSans-Bold-35" x="357.654297"/>
      <use xlink:href="#DejaVuSans-Bold-30" x="427.234375"/>
      <use xlink:href="#DejaVuSans-Bold-31" x="496.814453"/>
      <use xlink:href="#DejaVuSans-Bold-37" x="566.394531"/>
      <use xlink:href="#DejaVuSans-Bold-30" x="635.974609"/>
      <use xlink:href="#DejaVuSans-Bold-39" x="705.554688"/>
     </g>
    </g>
   </g>
   <g id="text_8">
    <g clip-path="url(#p8423eaaab2)">
     <!-- LOC25499742 -->
     <g transform="translate(352.347609 264.931632) scale(0.12 -0.12)">
      <use xlink:href="#DejaVuSans-Bold-4c"/>
      <use xlink:href="#DejaVuSans-Bold-4f" x="60.095703"/>
      <use xlink:href="#DejaVuSans-Bold-43" x="145.105469"/>
      <use xlink:href="#DejaVuSans-Bold-32" x="218.494141"/>
      <use xlink:href="#DejaVuSans-Bold-35" x="288.074219"/>
      <use xlink:href="#DejaVuSans-Bold-34" x="357.654297"/>
      <use xlink:href="#DejaVuSans-Bold-39" x="427.234375"/>
      <use xlink:href="#DejaVuSans-Bold-39" x="496.814453"/>
      <use xlink:href="#DejaVuSans-Bold-37" x="566.394531"/>
      <use xlink:href="#DejaVuSans-Bold-34" x="635.974609"/>
      <use xlink:href="#DejaVuSans-Bold-32" x="705.554688"/>
     </g>
    </g>
   </g>
   <g id="text_9">
    <g clip-path="url(#p8423eaaab2)">
     <!-- LOC25501056 -->
     <g transform="translate(374.305723 223.710276) scale(0.12 -0.12)">
      <use xlink:href="#DejaVuSans-Bold-4c"/>
      <use xlink:href="#DejaVuSans-Bold-4f" x="60.095703"/>
      <use xlink:href="#DejaVuSans-Bold-43" x="145.105469"/>
      <use xlink:href="#DejaVuSans-Bold-32" x="218.494141"/>
      <use xlink:href="#DejaVuSans-Bold-35" x="288.074219"/>
      <use xlink:href="#DejaVuSans-Bold-35" x="357.654297"/>
      <use xlink:href="#DejaVuSans-Bold-30" x="427.234375"/>
      <use xlink:href="#DejaVuSans-Bold-31" x="496.814453"/>
      <use xlink:href="#DejaVuSans-Bold-30" x="566.394531"/>
      <use xlink:href="#DejaVuSans-Bold-35" x="635.974609"/>
      <use xlink:href="#DejaVuSans-Bold-36" x="705.554688"/>
     </g>
    </g>
   </g>
   <g id="text_10">
    <g clip-path="url(#p8423eaaab2)">
     <!-- LOC11409729 -->
     <g transform="translate(-6.520723 64.234856) scale(0.12 -0.12)">
      <use xlink:href="#DejaVuSans-Bold-4c"/>
      <use xlink:href="#DejaVuSans-Bold-4f" x="60.095703"/>
      <use xlink:href="#DejaVuSans-Bold-43" x="145.105469"/>
      <use xlink:href="#DejaVuSans-Bold-31" x="218.494141"/>
      <use xlink:href="#DejaVuSans-Bold-31" x="288.074219"/>
      <use xlink:href="#DejaVuSans-Bold-34" x="357.654297"/>
      <use xlink:href="#DejaVuSans-Bold-30" x="427.234375"/>
      <use xlink:href="#DejaVuSans-Bold-39" x="496.814453"/>
      <use xlink:href="#DejaVuSans-Bold-37" x="566.394531"/>
      <use xlink:href="#DejaVuSans-Bold-32" x="635.974609"/>
      <use xlink:href="#DejaVuSans-Bold-39" x="705.554688"/>
     </g>
    </g>
   </g>
   <g id="text_11">
    <g clip-path="url(#p8423eaaab2)">
     <!-- LOC11411784 -->
     <g transform="translate(111.067371 33.301333) scale(0.12 -0.12)">
      <use xlink:href="#DejaVuSans-Bold-4c"/>
      <use xlink:href="#DejaVuSans-Bold-4f" x="60.095703"/>
      <use xlink:href="#DejaVuSans-Bold-43" x="145.105469"/>
      <use xlink:href="#DejaVuSans-Bold-31" x="218.494141"/>
      <use xlink:href="#DejaVuSans-Bold-31" x="288.074219"/>
      <use xlink:href="#DejaVuSans-Bold-34" x="357.654297"/>
      <use xlink:href="#DejaVuSans-Bold-31" x="427.234375"/>
      <use xlink:href="#DejaVuSans-Bold-31" x="496.814453"/>
      <use xlink:href="#DejaVuSans-Bold-37" x="566.394531"/>
      <use xlink:href="#DejaVuSans-Bold-38" x="635.974609"/>
      <use xlink:href="#DejaVuSans-Bold-34" x="705.554688"/>
     </g>
    </g>
   </g>
   <g id="text_12">
    <g clip-path="url(#p8423eaaab2)">
     <!-- LOC11419540 -->
     <g transform="translate(-2.609276 103.478847) scale(0.12 -0.12)">
      <use xlink:href="#DejaVuSans-Bold-4c"/>
      <use xlink:href="#DejaVuSans-Bold-4f" x="60.095703"/>
      <use xlink:href="#DejaVuSans-Bold-43" x="145.105469"/>
      <use xlink:href="#DejaVuSans-Bold-31" x="218.494141"/>
      <use xlink:href="#DejaVuSans-Bold-31" x="288.074219"/>
      <use xlink:href="#DejaVuSans-Bold-34" x="357.654297"/>
      <use xlink:href="#DejaVuSans-Bold-31" x="427.234375"/>
      <use xlink:href="#DejaVuSans-Bold-39" x="496.814453"/>
      <use xlink:href="#DejaVuSans-Bold-35" x="566.394531"/>
      <use xlink:href="#DejaVuSans-Bold-34" x="635.974609"/>
      <use xlink:href="#DejaVuSans-Bold-30" x="705.554688"/>
     </g>
    </g>
   </g>
   <g id="text_13">
    <g clip-path="url(#p8423eaaab2)">
     <!-- LOC11441969 -->
     <g transform="translate(40.281323 35.961066) scale(0.12 -0.12)">
      <use xlink:href="#DejaVuSans-Bold-4c"/>
      <use xlink:href="#DejaVuSans-Bold-4f" x="60.095703"/>
      <use xlink:href="#DejaVuSans-Bold-43" x="145.105469"/>
      <use xlink:href="#DejaVuSans-Bold-31" x="218.494141"/>
      <use xlink:href="#DejaVuSans-Bold-31" x="288.074219"/>
      <use xlink:href="#DejaVuSans-Bold-34" x="357.654297"/>
      <use xlink:href="#DejaVuSans-Bold-34" x="427.234375"/>
      <use xlink:href="#DejaVuSans-Bold-31" x="496.814453"/>
      <use xlink:href="#DejaVuSans-Bold-39" x="566.394531"/>
      <use xlink:href="#DejaVuSans-Bold-36" x="635.974609"/>
      <use xlink:href="#DejaVuSans-Bold-39" x="705.554688"/>
     </g>
    </g>
   </g>
   <g id="text_14">
    <g clip-path="url(#p8423eaaab2)">
     <!-- LOC25489577 -->
     <g transform="translate(148.840403 318.921167) scale(0.12 -0.12)">
      <use xlink:href="#DejaVuSans-Bold-4c"/>
      <use xlink:href="#DejaVuSans-Bold-4f" x="60.095703"/>
      <use xlink:href="#DejaVuSans-Bold-43" x="145.105469"/>
      <use xlink:href="#DejaVuSans-Bold-32" x="218.494141"/>
      <use xlink:href="#DejaVuSans-Bold-35" x="288.074219"/>
      <use xlink:href="#DejaVuSans-Bold-34" x="357.654297"/>
      <use xlink:href="#DejaVuSans-Bold-38" x="427.234375"/>
      <use xlink:href="#DejaVuSans-Bold-39" x="496.814453"/>
      <use xlink:href="#DejaVuSans-Bold-35" x="566.394531"/>
      <use xlink:href="#DejaVuSans-Bold-37" x="635.974609"/>
      <use xlink:href="#DejaVuSans-Bold-37" x="705.554688"/>
     </g>
    </g>
   </g>
   <g id="text_15">
    <g clip-path="url(#p8423eaaab2)">
     <!-- LOC25500594 -->
     <g transform="translate(217.232359 307.644873) scale(0.12 -0.12)">
      <use xlink:href="#DejaVuSans-Bold-4c"/>
      <use xlink:href="#DejaVuSans-Bold-4f" x="60.095703"/>
      <use xlink:href="#DejaVuSans-Bold-43" x="145.105469"/>
      <use xlink:href="#DejaVuSans-Bold-32" x="218.494141"/>
      <use xlink:href="#DejaVuSans-Bold-35" x="288.074219"/>
      <use xlink:href="#DejaVuSans-Bold-35" x="357.654297"/>
      <use xlink:href="#DejaVuSans-Bold-30" x="427.234375"/>
      <use xlink:href="#DejaVuSans-Bold-30" x="496.814453"/>
      <use xlink:href="#DejaVuSans-Bold-35" x="566.394531"/>
      <use xlink:href="#DejaVuSans-Bold-39" x="635.974609"/>
      <use xlink:href="#DejaVuSans-Bold-34" x="705.554688"/>
     </g>
    </g>
   </g>
   <g id="text_16">
    <g clip-path="url(#p8423eaaab2)">
     <!-- LOC25482102 -->
     <g transform="translate(84.965827 303.158723) scale(0.12 -0.12)">
      <use xlink:href="#DejaVuSans-Bold-4c"/>
      <use xlink:href="#DejaVuSans-Bold-4f" x="60.095703"/>
      <use xlink:href="#DejaVuSans-Bold-43" x="145.105469"/>
      <use xlink:href="#DejaVuSans-Bold-32" x="218.494141"/>
      <use xlink:href="#DejaVuSans-Bold-35" x="288.074219"/>
      <use xlink:href="#DejaVuSans-Bold-34" x="357.654297"/>
      <use xlink:href="#DejaVuSans-Bold-38" x="427.234375"/>
      <use xlink:href="#DejaVuSans-Bold-32" x="496.814453"/>
      <use xlink:href="#DejaVuSans-Bold-31" x="566.394531"/>
      <use xlink:href="#DejaVuSans-Bold-30" x="635.974609"/>
      <use xlink:href="#DejaVuSans-Bold-32" x="705.554688"/>
     </g>
    </g>
   </g>
   <g id="text_17">
    <g clip-path="url(#p8423eaaab2)">
     <!-- LOC25502269 -->
     <g transform="translate(61.08747 265.642811) scale(0.12 -0.12)">
      <use xlink:href="#DejaVuSans-Bold-4c"/>
      <use xlink:href="#DejaVuSans-Bold-4f" x="60.095703"/>
      <use xlink:href="#DejaVuSans-Bold-43" x="145.105469"/>
      <use xlink:href="#DejaVuSans-Bold-32" x="218.494141"/>
      <use xlink:href="#DejaVuSans-Bold-35" x="288.074219"/>
      <use xlink:href="#DejaVuSans-Bold-35" x="357.654297"/>
      <use xlink:href="#DejaVuSans-Bold-30" x="427.234375"/>
      <use xlink:href="#DejaVuSans-Bold-32" x="496.814453"/>
      <use xlink:href="#DejaVuSans-Bold-32" x="566.394531"/>
      <use xlink:href="#DejaVuSans-Bold-36" x="635.974609"/>
      <use xlink:href="#DejaVuSans-Bold-39" x="705.554688"/>
     </g>
    </g>
   </g>
  </g>
 </g>
 <defs>
  <clipPath id="p8423eaaab2">
   <rect x="0" y="0" width="460.8" height="345.6"/>
  </clipPath>
 </defs>
</svg>
